<svg xmlns="http://www.w3.org/2000/svg" viewBox="0 0 119 148.75" x="0px" y="0px">
    <path d="M92.46,26.49c-1.17-1.17-3.07-1.17-4.24,0l-28.72,28.76-21.89-21.86-6.87-6.86c-1.17-1.17-3.07-1.17-4.24,0-1.17,1.17-1.17,3.07,0,4.24l6.87,6.86,21.89,21.86-28.72,28.76c-1.17,1.17-1.17,3.07,0,4.24,.59,.58,1.35,.88,2.12,.88s1.54-.29,2.12-.88l28.72-28.76,19.47,19.44,9.29,9.28c.59,.58,1.35,.88,2.12,.88s1.54-.29,2.12-.88c1.17-1.17,1.17-3.07,0-4.24l-9.29-9.28-19.47-19.44,28.72-28.76c1.17-1.17,1.17-3.07,0-4.24Z" fill="white" stroke="white" stroke-width="3"/>
    <text x="0" y="134" fill="#000000" font-size="5px" font-weight="bold" font-family="'Helvetica Neue', Helvetica, Arial-Unicode, Arial, Sans-serif">Created by Daniela De Oliveira</text>
    <text x="0" y="139" fill="#000000" font-size="5px" font-weight="bold" font-family="'Helvetica Neue', Helvetica, Arial-Unicode, Arial, Sans-serif">from the Noun Project</text>
</svg>
