<!-- Edit pencil by Peter van Driel from <a href="https://thenounproject.com/browse/icons/term/edit-pencil/" target="_blank" title="Edit pencil Icons">Noun Project</a> (CC BY 3.0) -->

<svg xmlns:xlink="http://www.w3.org/1999/xlink" xmlns="http://www.w3.org/2000/svg" stroke-width="0.501" stroke-linejoin="bevel" fill-rule="evenodd" version="1.1" overflow="visible" viewBox="0 0 96 120" x="0px" y="0px"><g fill="white" stroke="white" font-family="Times New Roman" font-size="16" transform="scale(1 -1)"><g transform="translate(0 -96)"><g><path d="M 26.375,24.648 L 28.47,36.34 C 28.537,36.717 28.719,37.065 28.99,37.335 L 48.973,57.317 C 49.705,58.049 50.893,58.049 51.624,57.317 C 52.356,56.585 52.356,55.397 51.624,54.666 L 34.74,37.783 L 36.76,36.691 L 40.505,32.945 L 41.596,30.747 L 58.569,47.721 C 59.3,48.453 60.488,48.453 61.22,47.721 C 61.952,46.99 61.952,45.802 61.22,45.07 L 41.238,25.087 C 40.968,24.816 40.62,24.634 40.243,24.567 L 28.551,22.472 C 27.268,22.242 26.145,23.365 26.375,24.648 Z M 33.809,27.223 L 38.722,28.103 L 37.42,30.728 L 34.495,33.652 L 32.035,34.982 L 31.126,29.907 L 33.809,27.223 Z M 61.013,48.607 L 52.055,57.565 C 51.323,58.296 51.323,59.485 52.055,60.216 C 52.786,60.948 53.975,60.948 54.706,60.216 L 54.72,60.229 C 53.988,60.96 53.988,62.149 54.72,62.88 C 55.451,63.612 56.64,63.612 57.371,62.88 L 66.328,53.923 C 67.06,53.192 67.06,52.003 66.328,51.272 C 65.597,50.54 64.408,50.54 63.677,51.272 L 63.664,51.258 C 64.396,50.527 64.396,49.338 63.664,48.607 C 62.933,47.875 61.744,47.875 61.013,48.607 Z M 67.214,53.716 C 66.483,54.448 66.483,55.636 67.215,56.368 L 69.196,58.347 L 69.148,58.413 C 67.179,61.024 64.935,63.325 62.342,65.253 L 62.265,65.307 L 60.271,63.312 C 59.539,62.58 58.351,62.58 57.619,63.311 C 56.887,64.043 56.887,65.231 57.618,65.963 L 60.727,69.074 C 61.358,69.705 62.348,69.804 63.091,69.31 C 67.163,66.604 70.462,63.162 73.193,59.218 C 73.709,58.473 73.618,57.465 72.977,56.824 L 69.866,53.715 C 69.134,52.984 67.946,52.984 67.214,53.716 Z" stroke-linejoin="miter" stroke-linecap="round" stroke="white" stroke-width="0.75" fill="white" marker-start="none" marker-end="none" stroke-miterlimit="79.8403193612775"/></g></g></g></svg>