<svg width="64" height="64" viewBox="0 0 64 64" fill="none" xmlns="http://www.w3.org/2000/svg">
<rect width="64" height="64" rx="8" fill="black"/>
<path d="M9.77273 32.3409V30.2273C11.6705 30.2273 12.9943 29.8295 13.7443 29.0341C14.5057 28.2386 14.8864 26.9091 14.8864 25.0455V19.5909C14.8864 18.0227 15.0341 16.6648 15.3295 15.517C15.6364 14.3693 16.1307 13.4205 16.8125 12.6705C17.4943 11.9205 18.4034 11.3636 19.5398 11C20.6761 10.6364 22.0795 10.4545 23.75 10.4545V13.7955C22.4318 13.7955 21.392 14 20.6307 14.4091C19.8807 14.8182 19.3466 15.4545 19.0284 16.3182C18.7216 17.1705 18.5682 18.2614 18.5682 19.5909V26.4091C18.5682 27.2955 18.4489 28.1023 18.2102 28.8295C17.983 29.5568 17.5568 30.1818 16.9318 30.7045C16.3068 31.2273 15.4148 31.6307 14.2557 31.9148C13.108 32.1989 11.6136 32.3409 9.77273 32.3409ZM23.75 54.0909C22.0795 54.0909 20.6761 53.9091 19.5398 53.5455C18.4034 53.1818 17.4943 52.625 16.8125 51.875C16.1307 51.125 15.6364 50.1761 15.3295 49.0284C15.0341 47.8807 14.8864 46.5227 14.8864 44.9545V39.5C14.8864 37.6364 14.5057 36.3068 13.7443 35.5114C12.9943 34.7159 11.6705 34.3182 9.77273 34.3182V32.2045C11.6136 32.2045 13.108 32.3466 14.2557 32.6307C15.4148 32.9148 16.3068 33.3182 16.9318 33.8409C17.5568 34.3636 17.983 34.9886 18.2102 35.7159C18.4489 36.4432 18.5682 37.25 18.5682 38.1364V44.9545C18.5682 46.2841 18.7216 47.375 19.0284 48.2273C19.3466 49.0795 19.8807 49.7102 20.6307 50.1193C21.392 50.5398 22.4318 50.75 23.75 50.75V54.0909ZM9.77273 34.3182V30.2273H13.7955V34.3182H9.77273ZM54.5043 32.2045V34.3182C52.6065 34.3182 51.277 34.7159 50.5156 35.5114C49.7656 36.3068 49.3906 37.6364 49.3906 39.5V44.9545C49.3906 46.5227 49.2372 47.8807 48.9304 49.0284C48.6349 50.1761 48.1463 51.125 47.4645 51.875C46.7827 52.625 45.8736 53.1818 44.7372 53.5455C43.6009 53.9091 42.1974 54.0909 40.527 54.0909V50.75C41.8452 50.75 42.8793 50.5398 43.6293 50.1193C44.3906 49.7102 44.9247 49.0795 45.2315 48.2273C45.5497 47.375 45.7088 46.2841 45.7088 44.9545V38.1364C45.7088 37.25 45.8224 36.4432 46.0497 35.7159C46.2884 34.9886 46.7202 34.3636 47.3452 33.8409C47.9702 33.3182 48.8565 32.9148 50.0043 32.6307C51.1634 32.3466 52.6634 32.2045 54.5043 32.2045ZM40.527 10.4545C42.1974 10.4545 43.6009 10.6364 44.7372 11C45.8736 11.3636 46.7827 11.9205 47.4645 12.6705C48.1463 13.4205 48.6349 14.3693 48.9304 15.517C49.2372 16.6648 49.3906 18.0227 49.3906 19.5909V25.0455C49.3906 26.9091 49.7656 28.2386 50.5156 29.0341C51.277 29.8295 52.6065 30.2273 54.5043 30.2273V32.3409C52.6634 32.3409 51.1634 32.1989 50.0043 31.9148C48.8565 31.6307 47.9702 31.2273 47.3452 30.7045C46.7202 30.1818 46.2884 29.5568 46.0497 28.8295C45.8224 28.1023 45.7088 27.2955 45.7088 26.4091V19.5909C45.7088 18.2614 45.5497 17.1705 45.2315 16.3182C44.9247 15.4545 44.3906 14.8182 43.6293 14.4091C42.8793 14 41.8452 13.7955 40.527 13.7955V10.4545ZM54.5043 30.2273V34.3182H50.4815V30.2273H54.5043Z" fill="white"/>
</svg>
